<?xml version="1.0" encoding="utf-8"?>
<!-- Generator: Adobe Illustrator 22.0.1, SVG Export Plug-In . SVG Version: 6.00 Build 0)  -->
<svg version="1.1" id="Layer_1" xmlns="http://www.w3.org/2000/svg" xmlns:xlink="http://www.w3.org/1999/xlink" x="0px" y="0px"
	 viewBox="0 0 174.2 74" style="enable-background:new 0 0 174.2 74;" xml:space="preserve">
<style type="text/css">
	.st0{fill:#FFF2EA;}
	.st1{fill:url(#SVGID_1_);}
	.st2{fill:url(#SVGID_2_);}
	.st3{fill:url(#SVGID_3_);}
	.st4{fill:url(#SVGID_4_);}
	.st5{fill:url(#SVGID_5_);}
	.st6{fill:url(#SVGID_6_);}
</style>
<path class="st0" d="M37.6,19.7l-3.1,0c-0.9,0.2-1.8,0.4-2.7,0.7c-1.6,0.4-3.2,0.9-4.8,0.9c-1,0-2.1-0.1-3.1-0.6
	c-1.6-0.6-3.1-0.7-4.7-0.7c-0.9,0-1.8,0-2.8-0.1c-0.4,0-0.7,0.1-1.1,0.1c-1.9,0.5-6.4,2.7-6.3,13.1l0,2.1l0.1,9.6
	c0,1.5,0.3,2.9,0.8,4.1c0.2-1.2,0.5-2.5,1.1-3.9l1.7-4.5l0.1,4.8c0,0.9,0.3,3.4,1.5,4.1c0.6,0.4,1.5,0.3,2.6-0.3
	c1.8-0.9,2.9-1.7,3.9-2.5c0.6-0.4,1.1-0.8,1.7-1.1c0-0.2,0-0.3,0.1-0.5c0.1-0.6,0.4-1.1,0.6-1.6c0.6-0.9,1.3-1.6,2.2-2.1
	c-0.6,0.8-1.1,1.6-1.4,2.5c-0.3,0.9-0.4,1.7,0,2.3c0.8,1.3,2.6,2,4.3,2c1.7,0.1,3.5-0.4,4-1.8c0.1-0.3,0.2-0.7,0.1-1.2
	c0-0.4-0.1-0.9-0.3-1.3c-0.3-0.9-0.8-1.8-1.3-2.6c0.8,0.6,1.5,1.3,2.1,2.2c0.3,0.5,0.6,1.1,0.8,1.8c1.8,0.8,3.2,1.8,4.4,2.6
	c0.6,0.4,1.1,0.8,1.5,0.9c0.7,0.4,1.6,0.3,2.3-0.1c0.4-0.3,0.9-0.8,0.9-1.9l0-5.1l1.6,1.6c0.1,0.1,1.2,1.2,1.9,2.9
	c0.1-0.6,0.2-1.2,0.2-1.9l-0.1-16.8c0-3.3-2-6.1-4.7-7.3C40,20.2,38.8,20,37.6,19.7"/>
<linearGradient id="SVGID_1_" gradientUnits="userSpaceOnUse" x1="-897.9926" y1="569.7628" x2="-897.1057" y2="569.755" gradientTransform="matrix(-46.6907 -0.815 1.0971 -62.8532 -42503.6211 35119.6328)">
	<stop  offset="0" style="stop-color:#F9584F"/>
	<stop  offset="1" style="stop-color:#FFCE82"/>
</linearGradient>
<path class="st1" d="M47.9,44.4c0,2-0.4,3.8-1.2,5.5l0,0c-0.1,2-1,3.7-2.7,5.2c-5,4.4-10.6,5.3-15.8,2.5c-1,1-3.4,3.1-6.7,3.1
	c-0.9,0-1.8-0.1-2.8-0.5c-3.5-1.2-6.9-2.7-8.4-5.9c-0.2-0.5-0.4-1.1-0.5-1.6c-1.1-1.4-1.9-3.1-2.4-5c-0.1,1.7-0.2,3.2-0.3,4.4
	c-0.7,6.8,1.6,8.1,2.1,8.3c0.1-0.2,0.2-0.5,0.3-0.7c0.2-0.4,0.5-0.7,0.9-0.9c0,0.4-0.1,0.8-0.2,1.2c-0.1,0.4-0.2,0.7-0.2,1.1
	c0,0,0,0.1,0,0.1l0,0.1c0,1.7,2.9,4.2,8.4,5.6c3.2,0.8,9.6,3.6,11.4,4.4c0.1-0.1,0.3-0.3,0.4-0.5c0.2-0.4,0.4-0.9,0.6-1.4
	c0.2-0.5,0.3-1,0.4-1.6c0.1-0.5,0.3-1.1,0.5-1.7c0.3,1.2,0.3,2.3,0,3.5c-0.1,0.2-0.1,0.4-0.2,0.5c2.4-1.7,6.2-4.2,8.4-4.5
	c3.5-0.4,4.9-2.7,5.4-3.6c0-0.1,0-0.2,0-0.3c0-0.4,0-0.7,0-1.1c-0.1-0.4-0.2-0.7-0.4-1.2c0.4,0.1,0.8,0.5,1.1,0.9
	c0,0.1,0.1,0.2,0.1,0.3c1.6-2.5,2-8,2-10.1L47.9,44.4z M44.9,20.7c1.7,1.8,2.8,4.2,2.8,6.9l0,4.2c0-0.9,0.2-3,0.3-5.5
	c0.1-2,0.3-4.1,0.4-5.8C47.3,20.7,46.1,20.8,44.9,20.7 M7,30.9c0.3-4.9,1.7-8.5,4.2-10.8c0.5-0.4,1-0.8,1.4-1
	c-1.1-0.4-2.3-1.1-3.6-2c-1.6-0.6-2.4-2.2-2.8-3.6c-0.3,1.7,0.4,3.2,0.4,3.3l1.5,3.1L5.4,18c-0.6-0.4-1.1-0.5-1.7-0.4
	c0.9,0.4,1.9,1.1,2.7,1.7l0.8,0.6l-0.6,0.8c-2,2.4-2.3,5.2-0.9,8C6.1,29.6,6.6,30.3,7,30.9 M47.5,13.7c-6.1-5-12.9-6.5-17.8-3.8
	c-1.4,0.7-2.3,1.8-2.7,3.1c-0.7,2.6,0.6,5.5,1,6.3c1.1-0.1,2.2-0.4,3.3-0.7c0.7-0.2,1.4-0.4,2.1-0.5c-0.1-1.1,0-2.5,0.8-3.5
	c0.8-0.9,2-1.2,3.6-1c1.2,0.2,2.6,0.5,4.1,0.9c3.1,0.7,6.4,1.5,8.7,1.2C49.5,15.5,48.5,14.8,47.5,13.7"/>
<linearGradient id="SVGID_2_" gradientUnits="userSpaceOnUse" x1="-904.2783" y1="548.1996" x2="-903.3914" y2="548.1918" gradientTransform="matrix(-35.0876 -0.6125 0.2898 -16.602 -31843.7637 8558.7803)">
	<stop  offset="0" style="stop-color:#F9584F"/>
	<stop  offset="1" style="stop-color:#FFCE82"/>
</linearGradient>
<path class="st2" d="M35.6,4.1L35.6,4.1c-0.1,0-0.1,0-0.2-0.1c-1.2-0.5-2.6-0.8-4.1-1c-3.9-0.2-7.9,1.7-10.7,4.2
	c-4.3,3.8-1.2,9.5-0.1,11.1c1.2,0.1,2.5,0.2,3.9,0.8c0.9,0.3,1.7,0.5,2.6,0.4c-0.6-1.2-1.6-4.1-0.9-6.7c0.5-1.6,1.5-2.9,3.1-3.7
	c4.3-2.3,9.9-1.7,15.3,1.5C42.4,8.2,39.7,5.6,35.6,4.1 M10.3,15.7c1.6,1.1,3,1.8,4.4,2.1c-1-1.1-2.1-2.8-2.2-5
	c-0.1-2.7,1.3-5.4,4.2-8.3c-2,1-3.5,2.2-4.7,3.3c-0.3,0.3-0.6,0.5-0.9,0.7C8.3,10.6,9.9,14.7,10.3,15.7"/>
<linearGradient id="SVGID_3_" gradientUnits="userSpaceOnUse" x1="-901.0364" y1="547.1022" x2="-900.1495" y2="547.0945" gradientTransform="matrix(-40.2458 -0.7025 0.2793 -16.0028 -36362.793 8133.1294)">
	<stop  offset="0" style="stop-color:#F9584F"/>
	<stop  offset="1" style="stop-color:#FFCE82"/>
</linearGradient>
<path class="st3" d="M13.3,12.8c0.1,2.6,2,4.5,3,5.3c0.9,0.1,1.8,0.1,2.7,0.1c0.1,0,0.3,0,0.4,0c-1.3-2.3-3.8-7.9,0.6-11.8
	c1.9-1.7,4.4-3.1,7-3.9c-3.2-0.1-5.8,0.3-7.9,1C15.2,6.7,13.2,9.8,13.3,12.8 M53.5,15.4c-2.3,2.3-7.3,1.1-11.9,0
	c-1.5-0.4-2.8-0.7-4-0.9c-1.3-0.2-2.2,0-2.7,0.6c-0.6,0.7-0.7,1.8-0.6,2.7c1.2-0.2,2.4-0.3,3.6,0c4.6,0.9,9.8,1.7,14-0.1
	c0.9-0.4,1.5-0.9,1.6-1.6C53.5,15.9,53.5,15.7,53.5,15.4"/>
<path d="M48.1,26.4c0.1-2,0.3-4.1,0.4-5.8c-1.2,0.1-2.4,0.2-3.6,0.1c1.7,1.8,2.8,4.2,2.8,6.9l0,4.2C47.7,31,47.9,28.8,48.1,26.4
	 M10.3,15.6c1.6,1.1,3,1.8,4.4,2.1c-1-1.1-2.1-2.8-2.2-5c-0.1-2.7,1.3-5.4,4.2-8.3c-2,1-3.5,2.2-4.7,3.3c-0.3,0.3-0.6,0.5-0.9,0.7
	C8.3,10.6,9.9,14.7,10.3,15.6 M19.2,3.5c-4,3.2-6,6.3-5.9,9.3c0.1,2.6,2,4.5,3,5.3c0.9,0.1,1.8,0.1,2.7,0.1c0.1,0,0.3,0,0.4,0
	c-1.3-2.3-3.8-7.9,0.6-11.8c1.9-1.7,4.4-3.1,7-3.9C23.8,2.4,21.3,2.8,19.2,3.5 M44.6,10.6c-2.2-2.3-4.9-4.9-8.9-6.5l0,0
	C35.6,4,35.5,4,35.4,4c-1.2-0.5-2.6-0.8-4.1-1c-3.9-0.2-7.9,1.7-10.7,4.2c-4.3,3.8-1.2,9.5-0.1,11.1c1.2,0.1,2.5,0.2,3.9,0.8
	c0.9,0.3,1.7,0.5,2.6,0.4c-0.6-1.2-1.6-4.1-0.9-6.7c0.5-1.6,1.5-2.9,3.1-3.7C33.6,6.8,39.2,7.4,44.6,10.6 M44.3,47.1
	c0,1.4-0.7,2.6-1.7,3.3c-1.2,0.8-2.8,0.9-4.1,0.2c-0.5-0.2-1-0.6-1.7-1.1c-0.9-0.7-2.1-1.5-3.5-2.1c-0.2,0.4-0.4,0.8-0.7,1.1
	c-0.4,0.5-0.9,0.8-1.4,1c-1,0.5-2.1,0.6-3.2,0.6c-1.1-0.1-2.1-0.3-3.1-0.8c-0.5-0.3-1-0.6-1.4-1c-0.2-0.2-0.4-0.4-0.6-0.7
	c-0.1-0.1-0.1-0.2-0.2-0.3c-0.4,0.2-0.7,0.5-1.2,0.8c-1,0.7-2.2,1.6-4.1,2.6c-1.7,0.9-3.2,1-4.4,0.3c-0.7-0.5-1.2-1.2-1.6-1.9
	c-0.3,1.7-0.1,3.1,0.5,4.3c1.2,2.6,4.2,3.9,7.3,5c4.8,1.6,8-2.6,8-2.6l0.5-0.6l0.7,0.4c3.3,2,8.4,3.3,14.3-1.9
	c1.3-1.2,2-2.5,2.1-3.9C44.9,48.9,44.6,47.9,44.3,47.1 M37.6,19.7l-3.1,0c-0.9,0.2-1.8,0.4-2.7,0.7c-1.6,0.4-3.2,0.9-4.8,0.9
	c-1,0-2.1-0.1-3.1-0.6c-1.6-0.6-3.1-0.7-4.7-0.7c-0.9,0-1.8,0-2.8-0.1c-0.4,0-0.7,0.1-1.1,0.1c-1.9,0.5-6.4,2.7-6.3,13.1l0,2.1
	l0.1,9.6c0,1.5,0.3,2.9,0.8,4.1c0.2-1.2,0.5-2.5,1.1-3.9l1.7-4.5l0.1,4.8c0,0.9,0.3,3.4,1.5,4.1c0.6,0.4,1.5,0.3,2.6-0.3
	c1.8-0.9,2.9-1.7,3.9-2.5c0.6-0.4,1.1-0.8,1.7-1.1c0-0.2,0-0.3,0.1-0.5c0.1-0.6,0.4-1.1,0.6-1.6c0.6-0.9,1.3-1.6,2.2-2.1
	c-0.6,0.8-1.1,1.6-1.4,2.5c-0.3,0.9-0.4,1.7,0,2.3c0.8,1.3,2.6,2,4.3,2c1.7,0.1,3.5-0.4,4-1.8c0.1-0.3,0.2-0.7,0.1-1.2
	c0-0.4-0.1-0.9-0.3-1.3c-0.3-0.9-0.8-1.8-1.3-2.6c0.8,0.6,1.5,1.3,2.1,2.2c0.3,0.5,0.6,1.1,0.8,1.8c1.8,0.8,3.2,1.8,4.4,2.6
	c0.6,0.4,1.1,0.8,1.5,0.9c0.7,0.4,1.6,0.3,2.3-0.1c0.4-0.3,0.9-0.8,0.9-1.9l0-5.1l1.6,1.6c0.1,0.1,1.2,1.2,1.9,2.9
	c0.1-0.6,0.2-1.2,0.2-1.9l-0.1-16.8c0-3.3-2-6.1-4.7-7.3C40,20.2,38.8,20,37.6,19.7 M50.5,15.8c-1-0.2-2-1-3-2
	c-6.1-5-12.9-6.5-17.8-3.8c-1.4,0.7-2.3,1.8-2.7,3.1c-0.7,2.6,0.6,5.5,1,6.3c1.1-0.1,2.2-0.4,3.3-0.7c0.7-0.2,1.4-0.4,2.1-0.5
	c-0.1-1.1,0-2.5,0.8-3.5c0.8-0.9,2-1.2,3.6-1c1.2,0.2,2.6,0.5,4.1,0.9C44.9,15.3,48.2,16.1,50.5,15.8 M5.7,28.7
	c0.4,0.8,0.9,1.6,1.3,2.2c0.3-4.9,1.7-8.5,4.2-10.8c0.5-0.4,1-0.8,1.4-1c-1.1-0.4-2.3-1.1-3.6-2c-1.6-0.6-2.4-2.2-2.8-3.6
	c-0.3,1.7,0.4,3.2,0.4,3.3l1.5,3.1L5.4,18c-0.6-0.4-1.1-0.5-1.7-0.4c0.9,0.4,1.9,1.1,2.7,1.7l0.8,0.6l-0.6,0.8
	C4.7,23.1,4.4,25.8,5.7,28.7 M47.9,50.7l-0.1-6.2c0,2-0.4,3.8-1.2,5.5l0,0c-0.1,2-1,3.7-2.7,5.2c-5,4.4-10.6,5.3-15.8,2.5
	c-1,1-3.4,3.1-6.7,3.1c-0.9,0-1.8-0.1-2.8-0.5c-3.5-1.2-6.9-2.7-8.4-5.9c-0.2-0.5-0.4-1.1-0.5-1.6c-1.1-1.4-1.9-3.1-2.4-5
	c-0.1,1.7-0.2,3.2-0.3,4.4c-0.7,6.8,1.6,8.1,2.1,8.3c0.1-0.2,0.2-0.5,0.3-0.7c0.2-0.4,0.5-0.7,0.9-0.9c0,0.4-0.1,0.8-0.2,1.2
	c-0.1,0.4-0.2,0.7-0.2,1.1c0,0,0,0.1,0,0.1l0,0.1c0,1.7,2.9,4.2,8.4,5.6c3.2,0.8,9.6,3.6,11.4,4.4c0.1-0.1,0.3-0.3,0.4-0.5
	c0.2-0.4,0.4-0.9,0.6-1.4c0.2-0.5,0.3-1,0.4-1.6c0.1-0.5,0.3-1.1,0.5-1.7c0.3,1.2,0.3,2.3,0,3.5c-0.1,0.2-0.1,0.4-0.2,0.5
	c2.4-1.7,6.2-4.2,8.4-4.5c3.5-0.4,4.9-2.7,5.4-3.6c0-0.1,0-0.2,0-0.3c0-0.4,0-0.7,0-1.1c-0.1-0.4-0.2-0.7-0.4-1.2
	c0.4,0.1,0.8,0.5,1.1,0.9c0,0.1,0.1,0.2,0.1,0.3C47.6,58.3,47.9,52.8,47.9,50.7 M53.5,16.2c0.1-0.2,0.1-0.5,0-0.7
	c-2.3,2.3-7.3,1.1-11.9,0c-1.5-0.4-2.8-0.7-4-0.9c-1.3-0.2-2.2,0-2.7,0.6c-0.6,0.7-0.7,1.8-0.6,2.7c1.2-0.2,2.4-0.3,3.6,0
	c4.6,0.9,9.8,1.7,14-0.1C52.8,17.4,53.3,16.9,53.5,16.2 M55.2,16.6c-0.3,1.3-1.2,2.2-2.7,2.9c-0.7,0.3-1.4,0.5-2.2,0.7
	c-0.1,1.7-0.3,4.1-0.4,6.3c-0.2,2.3-0.3,4.5-0.3,5.3l0.2,18.8c0,0.4,0,8.6-2.7,11.8c-0.4,1-2,4.6-7,5.2c-2.2,0.2-7.6,4.1-9.5,5.6
	l-0.4,0.3l-0.5-0.2c-0.1,0-8.2-3.7-11.7-4.5c-5.5-1.4-9.2-4-9.8-6.8C7,61.4,4.6,59.1,5.3,52C5.8,47.4,6,36.4,6.1,32.6
	C3.7,29.8,1.5,25,4.7,20.3c-1.2-0.8-2.4-1.4-2.7-1.3c0,0,0.1,0,0.1-0.1l-1.4-1.2c0.1-0.1,0.6-0.9,1.5-1.5c0.7-0.4,1.5-0.6,2.3-0.5
	c-0.3-1.6-0.2-3.8,1.6-5.7l1.5-1.6l0,2.3c0,0.1,0,0.1,0,0.2c0.2-1.4,0.8-2.7,2.1-3.8c0.3-0.2,0.6-0.5,0.9-0.7
	c3.6-2.9,8.5-7,20.6-5.3c8.1,1.1,12.5,5.9,15.7,9.5c0-0.6-0.1-1.2-0.3-1.8l-0.9-3.2l2.4,2.2c0.1,0.1,2.4,2.2,2.1,6
	c0.3,0.2,0.6,0.3,0.9,0.3c0.9,0,0.9-1.9,0.9-1.9l0-2.7l1.6,2.1C53.8,11.6,55.8,14.2,55.2,16.6"/>
<linearGradient id="SVGID_4_" gradientUnits="userSpaceOnUse" x1="-905.5048" y1="537.5433" x2="-904.618" y2="537.5356" gradientTransform="matrix(-33.4648 -0.5841 0.2125 -12.175 -30372.4551 6068.8398)">
	<stop  offset="0" style="stop-color:#F9584F"/>
	<stop  offset="1" style="stop-color:#FFCE82"/>
</linearGradient>
<path class="st4" d="M42.5,50.5c-1.2,0.8-2.8,0.9-4.1,0.2c-0.5-0.2-1-0.6-1.7-1.1c-0.9-0.7-2.1-1.5-3.5-2.1
	c-0.2,0.4-0.4,0.8-0.7,1.1c-0.4,0.5-0.9,0.8-1.4,1c-1,0.5-2.1,0.6-3.2,0.6c-1.1-0.1-2.1-0.3-3.1-0.8c-0.5-0.3-1-0.6-1.4-1
	c-0.2-0.2-0.4-0.4-0.6-0.7c-0.1-0.1-0.1-0.2-0.2-0.3c-0.4,0.2-0.7,0.5-1.2,0.8c-1,0.7-2.2,1.6-4.1,2.6c-1.7,0.9-3.2,1-4.4,0.3
	c-0.7-0.5-1.2-1.2-1.6-1.9c-0.3,1.7-0.1,3.1,0.5,4.3c1.2,2.6,4.2,3.9,7.3,5c4.8,1.6,8-2.6,8-2.6l0.5-0.6l0.7,0.4
	c3.3,2,8.4,3.3,14.3-1.9c1.3-1.2,2-2.5,2.1-3.9c0-1-0.3-2-0.6-2.8C44.2,48.6,43.6,49.7,42.5,50.5"/>
<path d="M20.1,30c-0.6,0-2.8-0.1-4.5,1c-2.2,1.3-4.2,4.3-4.2,4.3s2.4-1.4,4.2-2.4c1.8-1,3.6-1,6.4,0.9c2.7,1.9,3.1,0.4,3.1,0.4
	C25.9,32.3,21.9,30.1,20.1,30 M30.6,34.2c0,0,0.3,1.4,3-0.5c2.7-1.9,4.5-1.9,6.3-1c1.8,0.9,4.2,2.3,4.2,2.3s-2-2.9-4.2-4.2
	c-1.8-1-3.9-0.9-4.5-0.9C33.6,30,29.6,32.3,30.6,34.2"/>
<ellipse cx="19.1" cy="39" rx="1.7" ry="1.8"/>
<ellipse cx="35.5" cy="39" rx="1.7" ry="1.8"/>
<path d="M69.3,37.5h4.8v-6.9h7.7v20.2h-7.7v-6.9h-4.8v6.9h-7.7V30.6h7.7V37.5z M95.6,44c0.7,0,1.2-0.2,1.7-0.7
	c0.5-0.5,0.7-1.1,0.7-1.9V30.6h7.7v10.8c0,1.4-0.2,2.8-0.7,4c-0.5,1.2-1.2,2.2-2.1,3.1c-0.9,0.9-2,1.5-3.2,2
	c-1.2,0.5-2.6,0.7-4.1,0.7c-1.5,0-2.9-0.2-4.1-0.7c-1.2-0.5-2.3-1.2-3.2-2c-0.9-0.9-1.6-1.9-2.1-3.1c-0.5-1.2-0.7-2.5-0.7-4V30.6
	h7.7v10.8c0,0.8,0.2,1.4,0.7,1.9C94.3,43.8,94.9,44,95.6,44z M121.2,44.2v-3.5h7.2v7.1c-0.6,0.7-1.3,1.2-2.1,1.7
	c-0.7,0.4-1.6,0.8-2.7,1.2c-1.1,0.4-2.4,0.5-3.9,0.5c-1.6,0-3-0.3-4.4-0.8c-1.3-0.5-2.5-1.3-3.5-2.2c-1-1-1.8-2.1-2.3-3.4
	c-0.6-1.3-0.8-2.7-0.8-4.1c0-1.5,0.3-2.9,0.8-4.1c0.6-1.3,1.3-2.4,2.3-3.4c1-1,2.1-1.7,3.5-2.2c1.3-0.5,2.8-0.8,4.4-0.8
	c1.4,0,2.7,0.2,3.7,0.5c1,0.3,1.9,0.7,2.6,1.1c0.8,0.5,1.5,1,2.1,1.6l-3.6,5.5c-0.4-0.3-0.7-0.5-1.2-0.8c-0.4-0.2-0.8-0.4-1.2-0.6
	s-1-0.2-1.5-0.2c-1.1,0-1.9,0.3-2.6,1c-0.7,0.6-1,1.5-1,2.5c0,1,0.3,1.9,1,2.5c0.7,0.6,1.5,1,2.6,1H121.2z M145.7,40.7
	c0-0.5-0.1-1-0.3-1.4c-0.2-0.4-0.4-0.8-0.7-1.1c-0.3-0.3-0.6-0.5-1-0.7c-0.4-0.2-0.8-0.3-1.3-0.3c-0.5,0-0.9,0.1-1.3,0.3
	c-0.4,0.2-0.7,0.4-1,0.7c-0.3,0.3-0.5,0.7-0.7,1.1s-0.3,0.9-0.3,1.4s0.1,1,0.3,1.4s0.4,0.8,0.7,1.1s0.6,0.5,1,0.7
	c0.4,0.2,0.8,0.3,1.3,0.3c0.4,0,0.9-0.1,1.3-0.3c0.4-0.2,0.7-0.4,1-0.7s0.5-0.7,0.7-1.1C145.6,41.7,145.7,41.2,145.7,40.7z
	 M154,40.7c0,1.5-0.3,2.9-0.8,4.1c-0.6,1.3-1.4,2.4-2.4,3.4c-1,1-2.3,1.7-3.7,2.2c-1.4,0.5-3,0.8-4.7,0.8c-1.7,0-3.3-0.3-4.7-0.8
	c-1.4-0.5-2.7-1.3-3.7-2.2c-1-1-1.8-2.1-2.4-3.4s-0.8-2.7-0.8-4.1c0-1.5,0.3-2.9,0.8-4.1s1.4-2.4,2.4-3.4c1-1,2.3-1.7,3.7-2.2
	c1.4-0.5,3-0.8,4.7-0.8c1.7,0,3.3,0.3,4.7,0.8c1.4,0.5,2.7,1.3,3.7,2.2c1,1,1.8,2.1,2.4,3.4C153.7,37.8,154,39.2,154,40.7z"/>
<g>
	<linearGradient id="SVGID_5_" gradientUnits="userSpaceOnUse" x1="157.027" y1="30.9637" x2="157.027" y2="16.6736">
		<stop  offset="0" style="stop-color:#F9584F"/>
		<stop  offset="1" style="stop-color:#FFCE82"/>
	</linearGradient>
	<path class="st5" d="M152.6,31V16.7h8.8v2.2h-6v3.7h4.5v2.2h-4.5V31H152.6z"/>
	<linearGradient id="SVGID_6_" gradientUnits="userSpaceOnUse" x1="168.0819" y1="30.9637" x2="168.0819" y2="16.6736">
		<stop  offset="0" style="stop-color:#F9584F"/>
		<stop  offset="1" style="stop-color:#FFCE82"/>
	</linearGradient>
	<path class="st6" d="M174.2,16.7l-4.5,7.1l4.5,7.1h-3.3l-2.9-4.7l-2.7,4.7H162l4.5-7.1l-4.5-7.1h3.3l2.9,4.7l2.8-4.7H174.2z"/>
</g>
</svg>
